<svg width="32" height="32" version="1.1" xmlns="http://www.w3.org/2000/svg"><path fill="rgb(21,159,216)" stroke="rgb(21,159,216)" stroke-width="1" opacity="0.4470588235294118" d="M 18.5 4 L 21 7.5 L 19 6.5 L 18.5 4 Z "></path><path fill="rgb(21,159,216)" stroke="rgb(21,159,216)" stroke-width="1" opacity="0.4470588235294118" d="M 27.5 5 L 30 5.5 L 28.5 8 L 27.5 5 Z "></path><path fill="rgb(21,159,216)" stroke="rgb(21,159,216)" stroke-width="1" opacity="0.4470588235294118" d="M 10.5 10 L 9.5 12 L 10.5 10 Z "></path><path fill="rgb(21,159,216)" stroke="rgb(21,159,216)" stroke-width="1" opacity="0.4470588235294118" d="M 24.5 13 L 25 15.5 L 19 20.5 Q 23.9 18.9 24.5 13 Z "></path><path fill="rgb(21,159,216)" stroke="rgb(21,159,216)" stroke-width="1" opacity="0.4470588235294118" d="M 9.5 15 L 10 18 L 8 17.5 L 9.5 15 Z "></path><path fill="rgb(21,159,216)" stroke="rgb(21,159,216)" stroke-width="1" opacity="0.4470588235294118" d="M 5.5 16 L 7 18.5 L 5 19.5 L 4 17.5 L 5.5 16 Z "></path><path fill="rgb(21,159,216)" stroke="rgb(21,159,216)" stroke-width="1" opacity="0.4470588235294118" d="M 13.5 24 L 15 24.5 Q 13 27.5 7.5 27 L 7.5 26 Q 12.1 26.6 13.5 24 Z "></path><path fill="rgb(21,159,216)" stroke="rgb(21,159,216)" stroke-width="1" opacity="0.4470588235294118" d="M 4.5 26 L 5 28 L 3 27.5 L 4.5 26 Z "></path><path fill="rgb(0,0,0)" stroke="rgb(0,0,0)" stroke-width="1" opacity="0" d="M 0 0 L 14.5 0 L 15 2.5 L 6.5 14 Q 4.3 13.3 5 15.5 Q 1.4 17.4 2 22 L 0 21.5 L 0 0 Z "></path><path fill="rgb(0,0,0)" stroke="rgb(0,0,0)" stroke-width="1" opacity="0" d="M 17 0 L 32 0.5 L 21.5 2 L 18.5 4 L 17 0 Z "></path><path fill="rgb(0,0,0)" stroke="rgb(0,0,0)" stroke-width="1" opacity="0" d="M 22.5 6 Q 27 5 28 7.5 Q 28.6 12.6 25.5 14 L 21 7.5 L 22.5 6 Z "></path><path fill="rgb(0,0,0)" stroke="rgb(0,0,0)" stroke-width="1" opacity="0" d="M 31.5 12 L 32 32 L 22 31.5 L 26 27.5 L 27 18.5 L 31.5 12 Z "></path><path fill="rgb(0,0,0)" stroke="rgb(0,0,0)" stroke-width="1" opacity="0" d="M 8.5 20 L 9 22.5 L 8 22.5 L 8.5 20 Z "></path><path fill="rgb(0,0,0)" stroke="rgb(0,0,0)" stroke-width="1" opacity="0" d="M 5.5 22 L 6 25.5 L 4 24.5 L 5.5 22 Z "></path><path fill="rgb(0,0,0)" stroke="rgb(0,0,0)" stroke-width="1" opacity="0" d="M 0.5 30 L 1.5 32 Q -1.3 32.7 0.5 30 Z "></path><path fill="rgb(0,0,0)" stroke="rgb(0,0,0)" stroke-width="1" opacity="0" d="M 8.5 31 L 11 31.5 L 8.5 32 L 8.5 31 Z "></path><path fill="rgb(15,157,215)" stroke="rgb(15,157,215)" stroke-width="1" opacity="0.9647058823529412" d="M 24.5 3 Q 28.3 2.3 29 4.5 L 28.5 6 L 28 4 Q 23.6 5 24.5 3 Z "></path><path fill="rgb(15,157,215)" stroke="rgb(15,157,215)" stroke-width="1" opacity="0.9647058823529412" d="M 4.5 19 L 5 20.5 L 3.5 27 Q 1.3 26.3 2 22.5 L 4.5 19 Z "></path><path fill="rgb(4,154,215)" stroke="rgb(4,154,215)" stroke-width="1" opacity="0.996078431372549" d="M 18.5 6 L 19.5 8 L 18.5 6 Z "></path><path fill="rgb(4,154,215)" stroke="rgb(4,154,215)" stroke-width="1" opacity="0.996078431372549" d="M 21.5 10 L 24 14.5 L 23 14.5 L 21.5 10 Z "></path><path fill="rgb(4,154,215)" stroke="rgb(4,154,215)" stroke-width="1" opacity="0.996078431372549" d="M 10 11 L 12 11.5 L 11.5 14 L 9 13.5 L 10 11 Z "></path><path fill="rgb(4,154,215)" stroke="rgb(4,154,215)" stroke-width="1" opacity="0.996078431372549" d="M 20.5 17 L 15.5 23 L 20.5 17 Z "></path><path fill="rgb(4,154,215)" stroke="rgb(4,154,215)" stroke-width="1" opacity="0.996078431372549" d="M 7.5 25 L 10 25.5 L 7.5 26 L 7.5 25 Z "></path><path fill="rgb(4,154,215)" stroke="rgb(4,154,215)" stroke-width="1" opacity="1" d="M 16.5 3 L 21 9.5 L 23 15.5 L 10.5 25 L 10 16.5 L 12 11.5 L 11 10.5 L 14 7.5 L 16.5 3 Z "></path><path fill="rgb(15,158,217)" stroke="rgb(15,158,217)" stroke-width="1" opacity="0.792156862745098" d="M 25.5 2 L 29 3.5 L 26.5 5 L 26.5 4 L 28 3.5 Q 24.7 3.6 25.5 2 Z "></path><path fill="rgb(15,158,217)" stroke="rgb(15,158,217)" stroke-width="1" opacity="0.792156862745098" d="M 21.5 3 L 25 4.5 L 23.5 5 L 21 4 L 20.5 6 L 20 4.5 L 21.5 3 Z "></path><path fill="rgb(15,158,217)" stroke="rgb(15,158,217)" stroke-width="1" opacity="0.792156862745098" d="M 14.5 5 L 13.5 7 L 14.5 5 Z "></path><path fill="rgb(15,158,217)" stroke="rgb(15,158,217)" stroke-width="1" opacity="0.792156862745098" d="M 20.5 8 L 21.5 10 L 20.5 8 Z "></path><path fill="rgb(15,158,217)" stroke="rgb(15,158,217)" stroke-width="1" opacity="0.792156862745098" d="M 9.5 12 L 12 12.5 L 10.5 16 L 8 14.5 L 10 13.5 L 9.5 12 Z "></path><path fill="rgb(15,158,217)" stroke="rgb(15,158,217)" stroke-width="1" opacity="0.792156862745098" d="M 23.5 15 L 17.5 22 L 23.5 15 Z "></path><path fill="rgb(15,158,217)" stroke="rgb(15,158,217)" stroke-width="1" opacity="0.792156862745098" d="M 5.5 17 L 4.5 19 L 5.5 17 Z "></path><path fill="rgb(15,158,217)" stroke="rgb(15,158,217)" stroke-width="1" opacity="0.792156862745098" d="M 9.5 18 L 10 21.5 L 9 21.5 L 9.5 18 Z "></path><path fill="rgb(15,158,217)" stroke="rgb(15,158,217)" stroke-width="1" opacity="0.792156862745098" d="M 6.5 19 L 8 21.5 L 6 22.5 L 6.5 19 Z "></path><path fill="rgb(15,158,217)" stroke="rgb(15,158,217)" stroke-width="1" opacity="0.792156862745098" d="M 8.5 24 L 11 25.5 L 9.5 25 L 8.5 24 Z "></path><path fill="rgb(14,118,185)" stroke="rgb(14,118,185)" stroke-width="1" opacity="0.2627450980392157" d="M 26.5 1 L 30 3.5 L 27.5 2 L 26.5 1 Z "></path><path fill="rgb(14,118,185)" stroke="rgb(14,118,185)" stroke-width="1" opacity="0.2627450980392157" d="M 28.5 9 L 29 10.5 L 27 11.5 L 28.5 9 Z "></path><path fill="rgb(14,118,185)" stroke="rgb(14,118,185)" stroke-width="1" opacity="0.2627450980392157" d="M 31.5 10 L 32 11.5 L 30 12.5 L 31.5 10 Z "></path><path fill="rgb(14,118,185)" stroke="rgb(14,118,185)" stroke-width="1" opacity="0.2627450980392157" d="M 26.5 13 L 25.5 15 L 26.5 13 Z "></path><path fill="rgb(14,118,185)" stroke="rgb(14,118,185)" stroke-width="1" opacity="0.2627450980392157" d="M 29.5 14 L 28.5 16 L 29.5 14 Z "></path><path fill="rgb(14,118,185)" stroke="rgb(14,118,185)" stroke-width="1" opacity="0.2627450980392157" d="M 26.5 18 L 27 20 L 23.5 22 L 26.5 18 Z "></path><path fill="rgb(14,118,185)" stroke="rgb(14,118,185)" stroke-width="1" opacity="0.2627450980392157" d="M 0 22 Q 3 21 2 24 Q -1 25 0 22 Z "></path><path fill="rgb(14,118,185)" stroke="rgb(14,118,185)" stroke-width="1" opacity="0.2627450980392157" d="M 7.5 27 L 9 27.5 L 4.5 29 L 4.5 28 L 7.5 27 Z "></path><path fill="rgb(3,109,182)" stroke="rgb(3,109,182)" stroke-width="1" opacity="0.8549019607843137" d="M 27.5 13 L 28.5 15 L 26 14.5 L 27.5 13 Z "></path><path fill="rgb(3,109,182)" stroke="rgb(3,109,182)" stroke-width="1" opacity="0.8549019607843137" d="M 25.5 18 L 23 21.5 L 22.5 23 L 22 21.5 L 25.5 18 Z "></path><path fill="rgb(3,109,182)" stroke="rgb(3,109,182)" stroke-width="1" opacity="0.8549019607843137" d="M 18.5 22 L 16.5 25 L 18.5 22 Z "></path><path fill="rgb(3,109,182)" stroke="rgb(3,109,182)" stroke-width="1" opacity="0.8549019607843137" d="M 0.5 25 L 3 28.5 L 0 28.5 L 0 26.5 L 0.5 25 Z "></path><path fill="rgb(3,109,182)" stroke="rgb(3,109,182)" stroke-width="1" opacity="0.8549019607843137" d="M 24.5 27 L 20.5 32 L 24.5 27 Z "></path><path fill="rgb(3,109,182)" stroke="rgb(3,109,182)" stroke-width="1" opacity="0.8549019607843137" d="M 8.5 28 Q 11.5 29.5 8.5 31 L 5 30.5 L 9 29.5 L 8.5 28 Z "></path><path fill="rgb(3,109,182)" stroke="rgb(3,109,182)" stroke-width="1" opacity="0.8549019607843137" d="M 11.5 30 L 12.5 32 L 11.5 30 Z "></path><path fill="rgb(2,108,182)" stroke="rgb(2,108,182)" stroke-width="1" opacity="0.9921568627450981" d="M 30 3 Q 34 1.6 32 8.5 L 22 22.5 L 26 20.5 Q 26 29.5 19.5 32 Q 11.7 33.3 9.5 29 L 4.5 31 L 1 30 L 0 27.5 L 2.5 29 L 8.5 29 L 13.5 27 L 28 13.5 L 30 8.5 L 30 3 Z "></path><path fill="rgb(34,164,216)" stroke="rgb(34,164,216)" stroke-width="1" opacity="0.09803921568627451" d="M 13.5 5 L 12 7.5 L 9.5 11 L 10 9.5 L 13.5 5 Z "></path><path fill="rgb(34,164,216)" stroke="rgb(34,164,216)" stroke-width="1" opacity="0.09803921568627451" d="M 23.5 5 Q 27.3 4.3 28 6.5 L 26.5 6 Q 22.5 6.8 23.5 5 Z "></path><path fill="rgb(34,164,216)" stroke="rgb(34,164,216)" stroke-width="1" opacity="0.09803921568627451" d="M 21.5 8 L 22.5 10 L 21.5 8 Z "></path><path fill="rgb(34,164,216)" stroke="rgb(34,164,216)" stroke-width="1" opacity="0.09803921568627451" d="M 6.5 14 L 8 14.5 L 6.5 17 Q 5.3 14.7 4 17.5 L 2.5 21 L 2 19.5 L 6.5 14 Z "></path><path fill="rgb(34,164,216)" stroke="rgb(34,164,216)" stroke-width="1" opacity="0.09803921568627451" d="M 5.5 20 L 6 21.5 L 4.5 24 L 4 22.5 L 5.5 20 Z "></path><path fill="rgb(34,164,216)" stroke="rgb(34,164,216)" stroke-width="1" opacity="0.09803921568627451" d="M 4.5 25 L 7 25.5 Q 8 29.3 5 28 L 4.5 25 Z "></path><path fill="rgb(7,112,184)" stroke="rgb(7,112,184)" stroke-width="1" opacity="0.5607843137254902" d="M 28.5 1 L 32 2.5 L 30.5 2 Q 27.5 2.5 28.5 1 Z "></path><path fill="rgb(7,112,184)" stroke="rgb(7,112,184)" stroke-width="1" opacity="0.5607843137254902" d="M 25.5 15 L 22.5 19 L 25.5 15 Z "></path><path fill="rgb(7,112,184)" stroke="rgb(7,112,184)" stroke-width="1" opacity="0.5607843137254902" d="M 27.5 16 L 26.5 18 L 27.5 16 Z "></path><path fill="rgb(7,112,184)" stroke="rgb(7,112,184)" stroke-width="1" opacity="0.5607843137254902" d="M 20.5 20 L 19.5 22 L 20.5 20 Z "></path><path fill="rgb(7,112,184)" stroke="rgb(7,112,184)" stroke-width="1" opacity="0.5607843137254902" d="M 26.5 20 L 27 22.5 L 26 22.5 L 26.5 20 Z "></path><path fill="rgb(7,112,184)" stroke="rgb(7,112,184)" stroke-width="1" opacity="0.5607843137254902" d="M 16.5 23 L 14.5 26 L 9.5 28 L 9.5 27 L 16.5 23 Z "></path><path fill="rgb(7,112,184)" stroke="rgb(7,112,184)" stroke-width="1" opacity="0.5607843137254902" d="M 1.5 26 L 3.5 29 L 1.5 26 Z "></path><path fill="rgb(7,112,184)" stroke="rgb(7,112,184)" stroke-width="1" opacity="0.5607843137254902" d="M 0.5 29 L 1.5 31 L 0.5 29 Z "></path></svg>